<?xml version="1.0" ?><svg id="Hospital" style="enable-background:new 0 0 32 32;" version="1.1" viewBox="0 0 32 32" xml:space="preserve" xmlns="http://www.w3.org/2000/svg" xmlns:xlink="http://www.w3.org/1999/xlink"><style type="text/css">
	.st0{fill:#A52E21;}
	.st1{fill:#F25949;}
</style><g><path class="st0" d="M28,10h-6V4c0-1.1-0.9-2-2-2h-4v28h4c1.1,0,2-0.9,2-2v-6h6c1.1,0,2-0.9,2-2v-8C30,10.9,29.1,10,28,10z"/><path class="st1" d="M12,2c-1.1,0-2,0.9-2,2v6H4c-1.1,0-2,0.9-2,2v8c0,1.1,0.9,2,2,2h6v6c0,1.1,0.9,2,2,2h4V2H12z"/></g></svg>